<svg width="134" height="130" viewBox="0 0 134 130" fill="none" xmlns="http://www.w3.org/2000/svg">
<g filter="url(#filter0_d_1330_217)">
<path opacity="0.6" d="M93 43.4176V50.9263C92.9985 54.3347 91.9074 57.6562 89.8813 60.4198C87.8553 63.1834 84.9971 65.249 81.712 66.3237L73.975 68.8345C71.837 69.5355 70.375 71.6524 70.375 73.8678C70.375 82.8396 62.95 90.1514 53.837 90.1514H49.287C45.125 90.1514 41.3 88.6006 38.375 86.0898C34.925 83.0986 32.75 78.7417 32.75 73.8678V62.335H44V73.8668C43.9991 74.5508 44.1352 75.2283 44.4006 75.8604C44.6661 76.4925 45.0555 77.0668 45.5468 77.5505C46.038 78.0342 46.6213 78.4176 47.2633 78.679C47.9053 78.9403 48.5933 79.0744 49.288 79.0735H53.838C54.5326 79.0742 55.2205 78.9401 55.8624 78.6787C56.5043 78.4173 57.0875 78.0338 57.5786 77.5502C58.0697 77.0665 58.4591 76.4922 58.7244 75.8602C58.9898 75.2281 59.1259 74.5507 59.125 73.8668C59.125 66.8889 63.663 60.5617 70.413 58.3473L78.15 55.8365C79.1957 55.4905 80.1052 54.8308 80.7509 53.95C81.3965 53.0692 81.7459 52.0115 81.75 50.9253V43.4176C81.7508 42.7337 81.6145 42.0563 81.3491 41.4243C81.0836 40.7923 80.6941 40.2181 80.2029 39.7346C79.7117 39.251 79.1284 38.8676 78.4865 38.6063C77.8446 38.345 77.1566 38.211 76.462 38.2119H49.288C48.5934 38.211 47.9054 38.345 47.2635 38.6063C46.6216 38.8676 46.0383 39.251 45.5471 39.7346C45.0559 40.2181 44.6664 40.7923 44.4009 41.4243C44.1355 42.0563 43.9992 42.7337 44 43.4176V54.9504H32.75V43.4176C32.75 38.5437 34.925 34.1868 38.375 31.1965C41.3 28.6858 45.125 27.135 49.288 27.135H76.462C85.575 27.135 93 34.4458 93 43.4176Z" fill="#00FFA3"/>
<path d="M76.462 30.8271H49.288C44.675 30.8271 40.625 33.2641 38.375 36.8825C37.175 38.8025 36.5 41.0179 36.5 43.4174V54.9502H40.25V43.4174C40.25 38.5071 44.3 34.5195 49.288 34.5195H76.462C81.45 34.5195 85.5 38.5071 85.5 43.4174V50.9261C85.4972 52.7914 84.898 54.6085 83.7873 56.1196C82.6765 57.6307 81.1107 58.7591 79.312 59.3446L71.612 61.8189C66.4 63.5538 62.875 68.4769 62.875 73.8676C62.875 78.7779 58.825 82.7666 53.837 82.7666H49.287C44.3 82.7666 40.25 78.7789 40.25 73.8676V62.3348H36.5V73.8667C36.5 76.2671 37.175 78.4825 38.375 80.4025C40.625 84.021 44.675 86.4579 49.288 86.4579H53.838C60.888 86.4579 66.625 80.8082 66.625 73.8667C66.625 70.0641 69.1 66.5441 72.813 65.3251L80.513 62.8518C85.725 61.1159 89.25 56.3159 89.25 50.9251V43.4174C89.25 36.4759 83.512 30.8271 76.462 30.8271V30.8271Z" fill="#00FFA3"/>
<path d="M29 60.4888H47.75V64.1811H29V60.4888Z" fill="#00FFA3"/>
<path d="M29 53.104H47.75V56.7963H29V53.104Z" fill="#00FFA3"/>
<path d="M31 12H107C108.657 12 110 13.3431 110 15V87C110 97.4934 101.493 106 91 106H15C13.3431 106 12 104.657 12 103V31C12 20.5066 20.5066 12 31 12Z" stroke="url(#paint0_linear_1330_217)" stroke-width="2" shape-rendering="crispEdges"/>
</g>
<defs>
<filter id="filter0_d_1330_217" x="0" y="0" width="134" height="130" filterUnits="userSpaceOnUse" color-interpolation-filters="sRGB">
<feFlood flood-opacity="0" result="BackgroundImageFix"/>
<feColorMatrix in="SourceAlpha" type="matrix" values="0 0 0 0 0 0 0 0 0 0 0 0 0 0 0 0 0 0 127 0" result="hardAlpha"/>
<feOffset dx="6" dy="6"/>
<feGaussianBlur stdDeviation="8.5"/>
<feComposite in2="hardAlpha" operator="out"/>
<feColorMatrix type="matrix" values="0 0 0 0 0.00989583 0 0 0 0 0.0888244 0 0 0 0 0.125 0 0 0 0.46 0"/>
<feBlend mode="normal" in2="BackgroundImageFix" result="effect1_dropShadow_1330_217"/>
<feBlend mode="normal" in="SourceGraphic" in2="effect1_dropShadow_1330_217" result="shape"/>
</filter>
<linearGradient id="paint0_linear_1330_217" x1="61" y1="11" x2="61" y2="107" gradientUnits="userSpaceOnUse">
<stop stop-color="#00D8A4"/>
<stop offset="1" stop-color="#009470"/>
</linearGradient>
</defs>
</svg>
